<?xml version="1.0" encoding="UTF-8"?>
<svg id="Camada_1" data-name="Camada 1" xmlns="http://www.w3.org/2000/svg" xmlns:xlink="http://www.w3.org/1999/xlink" viewBox="0 0 589.1 587.57">
  <defs>
    <linearGradient id="Gradiente_sem_nome_5" data-name="Gradiente sem nome 5" x1="8.14" y1="183.58" x2="561.08" y2="183.58" gradientUnits="userSpaceOnUse">
      <stop offset="0" stop-color="#0052cc"/>
      <stop offset="1" stop-color="#00c46b"/>
    </linearGradient>
  </defs>
  <path d="M151.8,361.18c32.04-12.02,63.53-24.66,92.15-43.75-6.68,1.63-13.31,3.52-20.06,4.83-25.84,5.05-51.85,5.49-78.04,3.25-27.41-2.35-53.85-8.52-79.12-19.32-19.92-8.52-38.04-19.91-52.99-35.87-1.14-1.22-2.25-2.46-3.31-3.74-.63-.76-1.15-1.61-2.29-3.24,1.61.63,2.46.82,3.14,1.25,20.76,13.2,43.62,20.79,67.86,23.27,51.42,5.27,101.47-2.12,150.55-17.71,45.44-14.44,88.72-33.53,128.79-59.45,28.41-18.37,53.84-40.3,75.25-66.67.84-1.03,1.64-2.1,2.38-3.21,3.27-4.84,2.95-8.27-2.53-10.37-9.42-3.61-19.13-6.68-28.95-8.96-9.51-2.21-19.33-3.14-30.21-4.81,65.09-32.67,125.33-71.88,186.65-110.7-.19,1.37-.13,2.13-.39,2.74-24.04,55.55-50.96,109.59-84.27,160.26-55.93,85.07-130.91,144.97-229.43,173.83-29.59,8.67-59.68,14.79-90.4,17.65-1.61.15-3.19.48-4.79.72Z" style="fill: url(#Gradiente_sem_nome_5); stroke-width: 0px;"/>
  <path d="M150.74,358.38c24.95-9.36,51.03-19.62,75.41-33.5-.56.12-1.13.23-1.69.34-15.82,3.09-32.08,4.59-49.71,4.59-9.28,0-19.09-.44-29.16-1.3-28.47-2.44-55.4-9.02-80.04-19.55-22.16-9.48-39.82-21.44-54-36.58-1.26-1.35-2.38-2.61-3.43-3.87-.5-.6-.92-1.22-1.45-2.01-.27-.4-.59-.87-.99-1.44l-5.69-8.12,9.24,3.61c.55.22,1.01.37,1.39.51.83.29,1.54.54,2.27,1,19.89,12.65,42.28,20.33,66.56,22.81,10.82,1.11,21.89,1.67,32.88,1.67,37.58,0,75.67-6.3,116.46-19.26,48.51-15.41,90.4-34.75,128.07-59.11,29.23-18.9,54.31-41.12,74.55-66.04.79-.97,1.53-1.97,2.22-3,1.73-2.56,1.65-3.67,1.54-4.02-.19-.61-1.16-1.29-2.66-1.87-9.67-3.71-19.28-6.68-28.55-8.83-6.4-1.49-13.02-2.39-20.02-3.35-3.22-.44-6.54-.89-9.97-1.42l-9.29-1.43,8.4-4.22c58.48-29.36,114.21-64.74,168.1-98.96,6.09-3.87,12.18-7.74,18.29-11.6l5.44-3.45-.87,6.38c-.06.44-.09.81-.12,1.12-.07.77-.13,1.57-.5,2.41-27.78,64.19-54.63,115.26-84.52,160.72-28.53,43.39-61.98,79.97-99.42,108.72-38.8,29.79-83.09,52.11-131.67,66.34-30.83,9.03-61.44,15.01-90.97,17.75-.98.09-1.99.26-3.05.44-.52.09-1.04.18-1.57.26l-1.51-5.77Z" style="fill: #000; stroke-width: 0px;"/>
  <path d="M151.8,361.18c32.04-12.02,63.53-24.66,92.15-43.75-6.68,1.63-13.31,3.52-20.06,4.83-25.84,5.05-51.85,5.49-78.04,3.25-27.41-2.35-53.85-8.52-79.12-19.32-19.92-8.52-38.04-19.91-52.99-35.87-1.14-1.22-2.25-2.46-3.31-3.74-.63-.76-1.15-1.61-2.29-3.24,1.61.63,2.46.82,3.14,1.25,20.76,13.2,43.62,20.79,67.86,23.27,51.42,5.27,101.47-2.12,150.55-17.71,45.44-14.44,88.72-33.53,128.79-59.45,28.41-18.37,53.84-40.3,75.25-66.67.84-1.03,1.64-2.1,2.38-3.21,3.27-4.84,2.95-8.27-2.53-10.37-9.42-3.61-19.13-6.68-28.95-8.96-9.51-2.21-19.33-3.14-30.21-4.81,65.09-32.67,125.33-71.88,186.65-110.7-.19,1.37-.13,2.13-.39,2.74-24.04,55.55-50.96,109.59-84.27,160.26-55.93,85.07-130.91,144.97-229.43,173.83-29.59,8.67-59.68,14.79-90.4,17.65-1.61.15-3.19.48-4.79.72Z" style="fill: url(#Gradiente_sem_nome_5); stroke-width: 0px;"/>
  <path d="M34.69,484.49c0,18.64,0,36.29,0,53.93q0,6.79-6.83,6.81c-6.33.02-12.66-.05-18.99.03-2.68.03-3.89-.89-3.88-3.76.1-48.14.14-96.28.2-144.42,0-.16.08-.32.23-.91h102.94c0,7.27.19,14.4-.21,21.49-.06,1-2.99,2.62-4.61,2.64-18.49.19-36.98.12-55.47.13-4.15,0-8.3,0-13.03,0-.14,1.9-.35,3.48-.35,5.06-.03,9.66.23,19.33-.11,28.98-.16,4.56,1.42,5.56,5.7,5.5,17.16-.23,34.32-.09,51.47-.09,1.98,0,3.96,0,6.77,0,0,7.78.12,15.2-.19,22.6-.03.73-2.73,1.91-4.2,1.92-16.32.14-32.65.09-48.98.09-3.28,0-6.57,0-10.46,0Z" style="fill: #000; stroke-width: 0px;"/>
  <path d="M337.62,484.32c0,10.44,0,19.9,0,29.37,0,8.83-.2,17.66.09,26.48.13,4.1-1.42,5.15-5.2,5.01-6.32-.23-12.67-.29-18.98.02-4.36.21-5.65-1.23-5.64-5.65.17-39.64.1-79.29.1-118.93,0-8.12,0-16.23,0-24.61h102.52c0,7.33.18,14.6-.22,21.83-.05.94-3.06,2.45-4.71,2.46-20.49.17-40.98.12-61.46.12-1.95,0-3.9,0-6.16,0v39.44h62.31v24.45h-62.64Z" style="fill: #000; stroke-width: 0px;"/>
  <path d="M470.1,433.06c9.53,0,18.34-.22,27.11.22,1.5.08,3.44,2.76,4.19,4.63,9.14,22.82,18.08,45.72,27.09,68.59.59,1.5,1.24,2.98,2.29,5.5,2.36-6.2,4.37-11.4,6.34-16.62,7.28-19.27,14.61-38.51,21.75-57.83,1.21-3.27,2.71-4.77,6.4-4.62,7.6.29,15.22.09,23.84.09-3.35,8.56-6.34,16.23-9.34,23.89-12.42,31.71-24.67,63.48-37.4,95.07-3.14,7.79-7.3,15.33-12.03,22.28-5.97,8.77-15.16,12.72-25.67,13.18-6.42.28-12.86.05-20.25.05,1.01-8.68,1.84-15.81,2.74-23.51,4.08,0,7.58.29,11.01-.05,11.77-1.17,19.73-14.38,15.25-25.25-13.98-33.95-28.01-67.87-42.01-101.81-.37-.9-.63-1.84-1.3-3.8Z" style="fill: #000; stroke-width: 0px;"/>
  <path d="M203.68,544.36h-26.43v-110.98h26.15v14.74c12.9-17.78,30.06-20.08,48.67-16.3,15.38,3.13,26.3,15.53,28.46,31.01.69,4.92,1.01,9.92,1.04,14.88.11,20.49.05,40.98.05,61.46,0,1.95,0,3.91,0,6.13h-27.32c-.1-2.22-.27-4.15-.28-6.09-.02-20.65,0-41.31-.02-61.96-.02-14.85-6.76-21.66-21.62-21.84-3.15-.04-6.38-.16-9.46.41-12.99,2.39-19.22,10.3-19.26,24.38-.06,19.65,0,39.31.01,58.96,0,1.63,0,3.27,0,5.19Z" style="fill: #000; stroke-width: 0px;"/>
  <path d="M458.55,544.45h-27.19v-153.11c8.47,0,16.75-.06,25.02.1.71.01,1.74,1.36,2.01,2.28.36,1.23.16,2.64.16,3.97,0,47,0,94,0,141,0,1.79,0,3.58,0,5.76Z" style="fill: #000; stroke-width: 0px;"/>
  <path d="M125.27,544.2v-110.95c8.5,0,16.76-.07,25.02.12.77.02,1.79,1.58,2.18,2.62.38,1.03.12,2.3.12,3.47,0,33.15,0,66.29,0,99.44,0,1.65,0,3.3,0,5.3h-27.32Z" style="fill: #000; stroke-width: 0px;"/>
  <path d="M123.92,404.22c-.05-8.75,6.2-15.09,14.95-15.18,8.26-.08,14.68,6.46,14.74,15.02.06,8.76-6.25,15.3-14.85,15.42-8.57.12-14.79-6.28-14.84-15.26Z" style="fill: #000; stroke-width: 0px;"/>
</svg>